<svg xmlns="http://www.w3.org/2000/svg" width="49.532" height="43.341" viewBox="0 0 49.532 43.341">
  <path id="bars-solid" d="M1.769,67.961H47.763a1.769,1.769,0,0,0,1.769-1.769V61.769A1.769,1.769,0,0,0,47.763,60H1.769A1.769,1.769,0,0,0,0,61.769v4.423A1.769,1.769,0,0,0,1.769,67.961Zm0,17.69H47.763a1.769,1.769,0,0,0,1.769-1.769V79.459a1.769,1.769,0,0,0-1.769-1.769H1.769A1.769,1.769,0,0,0,0,79.459v4.423A1.769,1.769,0,0,0,1.769,85.651Zm0,17.69H47.763a1.769,1.769,0,0,0,1.769-1.769V97.149a1.769,1.769,0,0,0-1.769-1.769H1.769A1.769,1.769,0,0,0,0,97.149v4.423A1.769,1.769,0,0,0,1.769,103.341Z" transform="translate(0 -60)" fill="rgba(255,255,255,0.85)"/>
</svg>
