<svg xmlns="http://www.w3.org/2000/svg" width="75" height="75" viewBox="0 0 75 75">
  <g id="Llamada" transform="translate(-1503 -721)">
    <g id="Trazado_3" data-name="Trazado 3" transform="translate(1503 721)" fill="none">
      <path d="M37.5,0A37.5,37.5,0,1,1,0,37.5,37.5,37.5,0,0,1,37.5,0Z" stroke="none"/>
      <path d="M 37.5 3 C 32.84121322631836 3 28.3233642578125 3.911766052246094 24.07196426391602 5.709953308105469 C 19.96408843994141 7.447441101074219 16.27420043945312 9.9354248046875 13.10481262207031 13.10481262207031 C 9.9354248046875 16.27420043945312 7.447441101074219 19.96408843994141 5.709953308105469 24.07196426391602 C 3.911766052246094 28.3233642578125 3 32.84121322631836 3 37.5 C 3 42.15878677368164 3.911766052246094 46.6766357421875 5.709953308105469 50.92803955078125 C 7.447441101074219 55.03591156005859 9.9354248046875 58.72579956054688 13.10481262207031 61.89518737792969 C 16.27420043945312 65.0645751953125 19.96408843994141 67.55256652832031 24.07196426391602 69.29004669189453 C 28.3233642578125 71.08823394775391 32.84121322631836 72 37.5 72 C 44.1124267578125 72 50.49272537231445 70.1524658203125 55.95128631591797 66.65702819824219 C 66.00048828125 60.222900390625 72 49.32307434082031 72 37.5 C 72 32.84121322631836 71.08823394775391 28.3233642578125 69.29004669189453 24.07196426391602 C 67.55256652832031 19.96408843994141 65.0645751953125 16.27420043945312 61.89518737792969 13.10481262207031 C 58.72579956054688 9.9354248046875 55.03591156005859 7.447441101074219 50.92803955078125 5.709953308105469 C 46.6766357421875 3.911766052246094 42.15878677368164 3 37.5 3 M 37.5 0 C 58.21067428588867 0 75 16.78932571411133 75 37.5 C 75 50.77553558349609 68.10157775878906 62.43987274169922 57.56892395019531 69.18354034423828 C 51.86487579345703 72.83617401123047 44.93512725830078 75 37.5 75 C 16.78932571411133 75 0 58.21067428588867 0 37.5 C 0 16.78932571411133 16.78932571411133 0 37.5 0 Z" stroke="none" fill="rgba(255,255,255,0.95)"/>
    </g>
    <path id="phone-solid" d="M33.352,1.653,26.32.03A1.633,1.633,0,0,0,24.46.97L21.215,8.543a1.619,1.619,0,0,0,.467,1.893l4.1,3.354A25.059,25.059,0,0,1,13.8,25.772l-3.354-4.1a1.621,1.621,0,0,0-1.893-.467L.977,24.453A1.642,1.642,0,0,0,.031,26.32l1.623,7.032a1.622,1.622,0,0,0,1.582,1.258A31.37,31.37,0,0,0,34.61,3.235,1.621,1.621,0,0,0,33.352,1.653Z" transform="translate(1523.01 741.011)" fill="#fff"/>
  </g>
</svg>
