<svg xmlns="http://www.w3.org/2000/svg" width="75" height="75" viewBox="0 0 75 75">
  <g id="Whatsapp" transform="translate(-1341 -721)">
    <g id="Trazado_1" data-name="Trazado 1" transform="translate(1341 721)" fill="none">
      <path d="M37.5,0A37.5,37.5,0,1,1,0,37.5,37.5,37.5,0,0,1,37.5,0Z" stroke="none"/>
      <path d="M 37.5 3 C 32.84121322631836 3 28.3233642578125 3.911766052246094 24.07196426391602 5.709953308105469 C 19.96408843994141 7.447441101074219 16.27420043945312 9.9354248046875 13.10481262207031 13.10481262207031 C 9.9354248046875 16.27420043945312 7.447441101074219 19.96408843994141 5.709953308105469 24.07196426391602 C 3.911766052246094 28.3233642578125 3 32.84121322631836 3 37.5 C 3 42.15878677368164 3.911766052246094 46.6766357421875 5.709953308105469 50.92803955078125 C 7.447441101074219 55.03591156005859 9.9354248046875 58.72579956054688 13.10481262207031 61.89518737792969 C 16.27420043945312 65.0645751953125 19.96408843994141 67.55256652832031 24.07196426391602 69.29004669189453 C 28.3233642578125 71.08823394775391 32.84121322631836 72 37.5 72 C 44.1124267578125 72 50.49272537231445 70.1524658203125 55.95128631591797 66.65702819824219 C 66.00048828125 60.222900390625 72 49.32307434082031 72 37.5 C 72 32.84121322631836 71.08823394775391 28.3233642578125 69.29004669189453 24.07196426391602 C 67.55256652832031 19.96408843994141 65.0645751953125 16.27420043945312 61.89518737792969 13.10481262207031 C 58.72579956054688 9.9354248046875 55.03591156005859 7.447441101074219 50.92803955078125 5.709953308105469 C 46.6766357421875 3.911766052246094 42.15878677368164 3 37.5 3 M 37.5 0 C 58.21067428588867 0 75 16.78932571411133 75 37.5 C 75 50.77553558349609 68.10157775878906 62.43987274169922 57.56892395019531 69.18354034423828 C 51.86487579345703 72.83617401123047 44.93512725830078 75 37.5 75 C 16.78932571411133 75 0 58.21067428588867 0 37.5 C 0 16.78932571411133 16.78932571411133 0 37.5 0 Z" stroke="none" fill="rgba(255,255,255,0.85)"/>
    </g>
    <path id="whatsapp-brands" d="M29.439,37.031a17.163,17.163,0,0,0-27,20.705L0,66.624l9.1-2.388a17.105,17.105,0,0,0,8.2,2.087H17.3A17.049,17.049,0,0,0,29.439,37.031ZM17.3,63.433a14.236,14.236,0,0,1-7.265-1.986l-.518-.309L4.127,62.551l1.438-5.263-.34-.541a14.289,14.289,0,1,1,26.5-7.582A14.42,14.42,0,0,1,17.3,63.433Zm7.821-10.681C24.7,52.535,22.591,51.5,22.2,51.36s-.68-.216-.966.216-1.105,1.391-1.36,1.685-.5.325-.927.108c-2.52-1.26-4.173-2.249-5.835-5.1-.441-.757.441-.7,1.26-2.342a.794.794,0,0,0-.039-.75c-.108-.216-.966-2.326-1.322-3.184-.348-.835-.7-.719-.966-.734-.247-.015-.533-.015-.819-.015a1.588,1.588,0,0,0-1.144.533,4.817,4.817,0,0,0-1.5,3.578,8.4,8.4,0,0,0,1.747,4.436c.216.286,3.022,4.614,7.327,6.477,2.72,1.175,3.787,1.275,5.147,1.074A4.391,4.391,0,0,0,25.69,55.3a3.586,3.586,0,0,0,.247-2.04C25.837,53.068,25.551,52.96,25.126,52.751Z" transform="translate(1361 709)" fill="rgba(255,255,255,0.85)"/>
  </g>
</svg>
